# AST/ASF file generated using VICON BodyLanguage
# -----------------------------------------------
:version 1.10
:name VICON
:units
  mass 1.0
  length 0.45
  angle deg
:documentation
   .ast/.asf automatically generated from VICON data using
   VICON BodyBuilder and BodyLanguage model FoxedUp or BRILLIANT.MOD
:root
   order TX TY TZ RX RY RZ
   axis XYZ
   position 0 0 0  
   orientation 0 0 0 
:bonedata
  begin
     id 1 
     name lhipjoint
     direction 0.521689 -0.742065 0.420928 
     length 2.47002 
     axis 0 0 0  XYZ
  end
  begin
     id 2 
     name lfemur
     direction 0.34202 -0.939693 0  
     length 7.24654  
     axis 0 0 20  XYZ
    dof rx ry rz
    limits (-160.0 20.0)
           (-70.0 70.0)
           (-60.0 70.0)
  end
  begin
     id 3 
     name ltibia
     direction 0.34202 -0.939693 0   
     length 8.04849   
     axis 0 0 20   XYZ
    dof rx
    limits (-10.0 170.0)
  end
  begin
     id 4 
     name lfoot
     direction 0.0745411 -0.2048 0.975961   
     length 1.72367   
     axis -90 7.62852e-016 20   XYZ
    dof rx rz
    limits (-45.0 90.0)
           (-70.0 20.0)
  end
  begin
     id 5 
     name ltoes
     direction 1.53556e-011 -4.21901e-011 1   
     length 0.87311   
     axis -90 7.62852e-016 20   XYZ
    dof rx
    limits (-90.0 20.0)
  end
  begin
     id 6 
     name rhipjoint
     direction -0.52849 -0.738415 0.418857   
     length 2.48223  
     axis 0 0 0  XYZ 
  end
  begin
     id 7 
     name rfemur
     direction -0.34202 -0.939693 0   
     length 7.15571   
     axis 0 0 -20   XYZ
    dof rx ry rz
    limits (-160.0 20.0)
           (-70.0 70.0)
           (-70.0 60.0)
  end
  begin
     id 8 
     name rtibia
     direction -0.34202 -0.939693 0   
     length 7.81659   
     axis 0 0 -20   XYZ
    dof rx
    limits (-10.0 170.0)
 end
 begin
     id 9 
     name rfoot
     direction -0.0917348 -0.252039 0.963359   
     length 1.84382  
     axis -90 -7.62852e-016 -20   XYZ
    dof rx rz
    limits (-45.0 90.0)
           (-20.0 70.0)
  end
  begin
     id 10 
     name rtoes
     direction -1.53551e-011 -4.21879e-011 1   
     length 0.927771   
     axis -90 -7.62852e-016 -20   XYZ
    dof rx
    limits (-90.0 20.0)
  end
  begin
     id 11 
     name lowerback
     direction 0.00583058 0.999822 0.0179296   
     length 2.1429   
     axis 0 0 0   XYZ
    dof rx ry rz
    limits (-20.0 45.0)
           (-30.0 30.0)
           (-30.0 30.0)
  end
  begin
     id 12 
     name upperback
     direction -0.0137999 0.999752 -0.0175071   
     length 2.14252   
     axis 0 0 0   XYZ
    dof rx ry rz
    limits (-20.0 45.0)
           (-30.0 30.0)
           (-30.0 30.0)
  end
  begin
     id 13 
     name thorax
     direction -0.0158036 0.99955 -0.0254909   
     length 2.1383   
     axis 0 0 0   XYZ
    dof rx ry rz
    limits (-20.0 45.0)
           (-30.0 30.0)
           (-30.0 30.0)
  end
  begin
     id 14 
     name lowerneck
     direction -0.0101179 0.999403 -0.0330262   
     length 1.65808   
     axis 0 0 0   XYZ
    dof rx ry rz
    limits (-20.0 45.0)
           (-30.0 30.0)
           (-30.0 30.0)
  end
  begin
     id 15 
     name upperneck
     direction 0.0497734 0.995978 -0.074501   
     length 1.5897   
     axis 0 0 0   XYZ
    dof rx ry rz
    limits (-20.0 45.0)
           (-30.0 30.0)
           (-30.0 30.0)
  end
  begin
     id 16
     name head
     direction 0.0189524 0.999519 -0.0245438  
     length 1.74024  
     axis 0 0 0   XYZ
    dof rx ry rz
    limits (-20.0 45.0)
           (-30.0 30.0)
           (-30.0 30.0)
  end
  begin
     id 17 
     name lclavicle
     direction 0.945604 0.324422 0.0241537  
     length 3.59089  
     axis 0 0 0   XYZ
    dof ry rz
    limits (-20.0 10.0)
           (0.0 20.0)
  end
  begin
     id 18 
     name lhumerus
     direction 1 -4.48964e-011 -2.63524e-027   
     length 5.2391   
     axis 180 -30 -90   XYZ
    dof rx ry rz
    limits (-60.0 90.0)
           (-90.0 90.0)
           (-90.0 90.0)
  end
  begin
     id 19
     name lradius
     direction 1 -4.48969e-011 3.86978e-028   
     length 3.31467   
     axis 180 -30 -90   XYZ
    dof rx
    limits (-10.0 170.0)
  end
  begin
     id 20
     name lwrist
     direction 1 -4.48963e-011 7.20928e-028   
     length 1.65734   
     axis -5.52449e-016 90 90   XYZ
    dof ry
    limits (-180.0 0.0)
 end
  begin
     id 21 
     name lhand
     direction 1 -4.48964e-011 1.44186e-027   
     length 0.9659   
     axis -9.20027e-016 90 90   XYZ
    dof rx rz
    limits (-90.0 90.0)
           (-45.0 45.0)
  end
  begin
     id 22 
     name lfingers
     direction 1 -4.48965e-011 2.88371e-027   
     length 0.778733   
     axis -1.84005e-015 90 90   XYZ
    dof rx
    limits (0.0 90.0)
  end
  begin
     id 23
     name lthumb
     direction 0.707107 -6.34931e-011 0.707107   
     length 1.11811   
     axis -90 45 2.85299e-015   XYZ
    dof rx rz
    limits (-45.0 45.0)
           (-45.0 45.0)
  end
  begin
     id 24 
     name rclavicle
     direction -0.923762 0.370785 0.0958234   
     length 3.54196  
     axis 0 0 0   XYZ 
    dof ry rz
    limits (-10.0 20.0)
           (-20.0 0.0)
  end
  begin
     id 25 
     name rhumerus
     direction -1 -4.48966e-011 1.18702e-017  
     length 5.30252   
     axis 180 30 90   XYZ
    dof rx ry rz
    limits (-90.0 60.0)
           (-90.0 90.0)
           (-90.0 90.0)
  end
  begin
     id 26 
     name rradius
     direction -1 -4.48966e-011 4.46736e-027   
     length 3.67875   
     axis 180 30 90   XYZ
    dof rx
    limits (-10.0 170.0)
  end
  begin
     id 27 
     name rwrist
     direction -1 -4.48966e-011 7.20928e-028   
     length 1.83937   
     axis -5.52449e-016 -90 -90   XYZ
    dof ry
    limits (-180.0 0.0)
  end
  begin
     id 28
     name rhand
     direction -1 -4.48973e-011 1.44186e-027   
     length 0.594811   
     axis -9.20027e-016 -90 -90   XYZ
    dof rx rz
    limits (-90.0 90.0)
           (-45.0 45.0)
  end
  begin
     id 29
     name rfingers
     direction -1 -4.48963e-011 2.88371e-027   
     length 0.479552   
     axis -1.84005e-015 -90 -90   XYZ
    dof rx
    limits (0.0 90.0)
  end
  begin
     id 30
     name rthumb
     direction -0.707107 -6.34932e-011 0.707107   
     length 0.688544   
     axis -90 -45 -2.85299e-015   XYZ
    dof rx rz
    limits (-45.0 45.0)
           (-45.0 45.0)
  end
:hierarchy
  begin
    root lhipjoint rhipjoint lowerback
    lhipjoint lfemur
    lfemur ltibia
    ltibia lfoot
    lfoot ltoes
    rhipjoint rfemur
    rfemur rtibia
    rtibia rfoot
    rfoot rtoes
    lowerback upperback
    upperback thorax
    thorax lowerneck lclavicle rclavicle
    lowerneck upperneck
    upperneck head
    lclavicle lhumerus
    lhumerus lradius
    lradius lwrist
    lwrist lhand lthumb
    lhand lfingers
    rclavicle rhumerus
    rhumerus rradius
    rradius rwrist
    rwrist rhand rthumb
    rhand rfingers
  end

#!OML:ASF E:\acrobat2\Project_11_07_03\Capture day 1\Session 1\Acrobat.ASF
:FULLY-SPECIFIED
:DEGREES
443
root 9.57361 16.9671 -11.7266 465.346 42.5762 -409.374
lowerback 1.45367 -4.20015 -2.00954
upperback -2.07658 -6.03278 -10.5606
thorax -3.97387 -3.07887 -9.77417
lowerneck -2.10524 -7.31057 2.40915
upperneck -29.5686 -11.2803 0.764079
head -9.03436 -5.53625 0.611741
rclavicle -2.19458e-013 -6.36111e-014
rhumerus 66.3297 -40.3714 -36.8833
rradius 41.7518
rwrist 12.4511
rhand -33.5559 -46.0708
rfingers 7.12502
rthumb -6.75088 -75.9431
lclavicle -2.19458e-013 -6.36111e-014
lhumerus 85.3094 18.1804 50.077
lradius 25.1554
lwrist -6.25604
lhand -57.1132 -67.7642
lfingers 7.12502
lthumb -29.3996 -40.0699
rfemur 18.1173 9.6211 12.1885
rtibia 8.16248
rfoot 15.8486 -43.2079
rtoes 42.4744
lfemur -27.5015 45.9867 47.7101
ltibia -7.6189
lfoot -29.9042 15.3793
ltoes 57.2925
444
root 9.60613 17.0068 -11.3402 466.165 43.6709 -408.913
lowerback 2.07333 -4.33393 -2.7457
upperback -2.13787 -6.28611 -10.6344
thorax -4.36049 -3.17512 -9.36624
lowerneck -2.53052 -7.80848 1.62151
upperneck -28.897 -11.9741 0.932421
head -8.66513 -5.79565 0.792065
rclavicle -1.74931e-014 1.04958e-013
rhumerus 64.7282 -41.1905 -35.4679
rradius 41.9939
rwrist 14.1913
rhand -33.7889 -45.962
rfingers 7.12502
rthumb -6.97575 -75.8271
lclavicle -1.74931e-014 1.04958e-013
lhumerus 83.9733 18.5818 47.728
lradius 26.5567
lwrist -5.05257
lhand -57.2812 -68.0581
lfingers 7.12502
lthumb -29.5599 -40.392
rfemur 19.2623 11.0498 11.4023
rtibia 8.29973
rfoot 15.0443 -43.1596
rtoes 41.8137
lfemur -21.2896 13.5932 62.1071
ltibia -9.90468
lfoot -61.9344 5.9485
ltoes 57.5894
445
root 9.64483 17.0405 -10.9482 466.566 44.8846 -408.67
lowerback 3.02325 -4.42511 -3.63844
upperback -2.19001 -6.5196 -10.5771
thorax -4.88251 -3.24722 -8.69982
lowerneck -2.12971 -8.41569 2.43444
upperneck -29.388 -13.0655 0.433426
head -9.02009 -6.30487 0.614392
rclavicle -5.40694e-014 1.11319e-013
rhumerus 63.0203 -41.9063 -34.1514
rradius 42.5296
rwrist 15.764
rhand -34.0782 -46.0422
rfingers 7.12502
rthumb -7.25505 -75.8978
lclavicle -5.40694e-014 1.11319e-013
lhumerus 82.7302 19.0092 46.0635
lradius 27.8875
lwrist -4.50736
lhand -57.3416 -68.2818
lfingers 7.12502
lthumb -29.6176 -40.626
rfemur 20.4956 12.1885 10.6153
rtibia 8.40765
rfoot 14.7293 -42.7394
rtoes 41.1371
lfemur -23.7736 -21.666 75.9643
ltibia -10.9164
lfoot -94.7315 -5.31631
ltoes 57.7868
446
root 9.68722 17.0671 -10.5585 466.889 46.1342 -408.552
lowerback 3.92871 -4.47061 -4.51773
upperback -2.27639 -6.7072 -10.4674
thorax -5.39939 -3.29089 -7.99382
lowerneck -2.13232 -8.8641 1.5454
upperneck -29.1253 -13.5885 1.12061
head -8.81319 -6.52067 0.9999
rclavicle 4.29375e-014 7.63333e-014
rhumerus 61.494 -42.5899 -33.4674
rradius 43.4629
rwrist 17.612
rhand -34.2659 -46.152
rfingers 7.12502
rthumb -7.43626 -76.0013
lclavicle 4.29375e-014 7.63333e-014
lhumerus 82.8245 19.014 45.7518
lradius 28.336
lwrist -5.21478
lhand -57.2199 -68.5411
lfingers 7.12502
lthumb -29.5015 -40.8647
rfemur 21.6264 13.2845 9.85534
rtibia 8.35095
rfoot 13.7938 -42.359
rtoes 40.2737
lfemur -22.6848 -6.25082 68.5849
ltibia -6.5292
lfoot -74.14 4.46926
ltoes 56.7332
447
root 9.71973 17.0941 -10.1998 468.285 47.5341 -408.33
lowerback 3.57974 -4.49965 -4.82914
upperback -2.57934 -6.7577 -10.3581
thorax -5.47815 -3.29981 -7.7131
lowerneck -2.19135 -9.29574 0.595305
upperneck -28.8446 -14.0985 1.73758
head -8.58344 -6.71666 1.35753
rclavicle 4.37326e-014 2.22639e-014
rhumerus 59.7028 -43.3442 -32.8396
rradius 44.7188
rwrist 19.1209
rhand -34.5788 -46.3192
rfingers 7.12502
rthumb -7.73826 -76.1576
lclavicle 4.37326e-014 2.22639e-014
lhumerus 82.4779 18.9431 45.2275
lradius 29.2671
lwrist -5.60284
lhand -57.2307 -68.8847
lfingers 7.12502
lthumb -29.5117 -41.2101
rfemur 21.7096 14.2641 8.95531
rtibia 8.05144
rfoot 12.6287 -42.9234
rtoes 39.271
lfemur -22.8841 1.91717 65.0604
ltibia -2.59785
lfoot -60.4355 13.9306
ltoes 56.4989
448
root 9.74953 17.1144 -9.84518 470.004 49.1476 -407.985
lowerback 2.85969 -4.50734 -4.7994
upperback -2.87048 -6.72258 -10.2674
thorax -5.36428 -3.28476 -7.68146
lowerneck -2.54712 -9.64028 0.635036
upperneck -28.5789 -14.5921 1.74477
head -8.43195 -6.94765 1.34714
rclavicle 1.74135e-013 3.81667e-014
rhumerus 58.4435 -44.078 -32.5102
rradius 45.3542
rwrist 20.0437
rhand -35.3086 -46.6644
rfingers 7.12502
rthumb -8.44257 -76.4756
lclavicle 1.74135e-013 3.81667e-014
lhumerus 82.3228 18.7573 44.6035
lradius 30.0428
lwrist -5.98306
lhand -57.356 -68.9127
lfingers 7.12502
lthumb -29.6313 -41.2593
rfemur 21.6182 15.1945 8.23899
rtibia 7.36926
rfoot 11.3257 -43.8866
rtoes 38.8329
lfemur -22.6944 3.16247 63.9492
ltibia -0.904411
lfoot -53.2506 19.6396
ltoes 55.7326
449
root 9.77793 17.1269 -9.49653 471.629 50.6894 -407.789
lowerback 2.01826 -4.55323 -4.81677
upperback -3.1926 -6.7364 -10.2466
thorax -5.22441 -3.29279 -7.70659
lowerneck -2.91397 -9.87746 0.910803
upperneck -28.3026 -14.9141 1.73722
head -8.29584 -7.12502 1.28536
rclavicle 1.11319e-014 -4.29375e-014
rhumerus 57.5357 -44.6006 -32.4371
rradius 45.5891
rwrist 20.5694
rhand -35.9025 -47.1052
rfingers 7.12502
rthumb -9.01568 -76.8925
lclavicle 1.11319e-014 -4.29375e-014
lhumerus 82.2562 18.5571 43.6864
lradius 30.5189
lwrist -6.29536
lhand -57.37 -68.9815
lfingers 7.12502
lthumb -29.6447 -41.3305
rfemur 21.4422 15.876 7.1374
rtibia 6.46794
rfoot 10.2122 -44.7071
rtoes 39.3418
lfemur -22.3571 3.56981 62.9353
ltibia 0.440194
lfoot -48.5599 21.0219
ltoes 55.1483
450
root 9.80703 17.1307 -9.15165 473.198 52.2298 -407.591
lowerback 1.23371 -4.62279 -4.83029
upperback -3.58587 -6.79406 -10.1198
thorax -5.18356 -3.32115 -7.60964
lowerneck -3.02123 -10.1902 0.354234
upperneck -27.9466 -15.1986 2.4208
head -8.04825 -7.27712 1.57349
rclavicle -4.21423e-014 2.8625e-014
rhumerus 56.5389 -44.8551 -32.1706
rradius 46.0114
rwrist 20.9503
rhand -36.1232 -47.5295
rfingers 7.12502
rthumb -9.22872 -77.3076
lclavicle -4.21423e-014 2.8625e-014
lhumerus 81.333 18.665 42.0995
lradius 31.3723
lwrist -5.84194
lhand -57.2368 -69.357
lfingers 7.12502
lthumb -29.5175 -41.6835
rfemur 21.1944 16.1904 5.77355
rtibia 5.47834
rfoot 8.83848 -45.6781
rtoes 40.0675
lfemur -21.8766 3.31166 61.9674
ltibia 1.29487
lfoot -46.2037 20.6824
ltoes 55.418
451
root 9.8375 17.1275 -8.80561 474.841 53.846 -407.274
lowerback 0.439973 -4.6512 -4.76213
upperback -3.96011 -6.78538 -9.88411
thorax -5.10364 -3.31945 -7.44522
lowerneck -2.98265 -10.7037 0.641576
upperneck -27.7868 -15.9211 2.66574
head -7.99949 -7.66805 1.64215
rclavicle -6.52014e-014 -6.04305e-014
rhumerus 55.2283 -45.0848 -31.53
rradius 46.6267
rwrist 21.2203
rhand -36.6248 -47.804
rfingers 7.12502
rthumb -9.71263 -77.5601
lclavicle -6.52014e-014 -6.04305e-014
lhumerus 80.3084 18.8178 40.5944
lradius 32.3152
lwrist -5.28984
lhand -56.9601 -69.7084
lfingers 7.12502
lthumb -29.2534 -41.9885
rfemur 20.8786 16.5141 4.56463
rtibia 4.49127
rfoot 7.22876 -46.8764
rtoes 40.5783
lfemur -21.0642 1.57244 61.4078
ltibia 1.05581
lfoot -46.4969 20.0769
ltoes 55.7304
452
root 9.86931 17.1213 -8.46539 476.532 55.6919 -406.796
lowerback -0.319124 -4.67084 -4.47951
upperback -4.27673 -6.75778 -9.63208
thorax -5.00256 -3.31804 -7.38369
lowerneck -3.67927 -10.8048 -0.0863635
upperneck -26.9525 -15.8724 3.11504
head -7.49402 -7.64108 1.78948
rclavicle 9.70069e-014 -4.45278e-014
rhumerus 53.6411 -45.3317 -30.8341
rradius 47.2232
rwrist 21.4675
rhand -37.1543 -47.9843
rfingers 7.12502
rthumb -10.2235 -77.7159
lclavicle 9.70069e-014 -4.45278e-014
lhumerus 79.3114 18.9729 38.8769
lradius 33.3513
lwrist -4.72412
lhand -56.9788 -69.5629
lfingers 7.12502
lthumb -29.2712 -41.8461
rfemur 20.5875 17.2232 3.87021
rtibia 3.61071
rfoot 3.98916 -48.3136
rtoes 42.6732
lfemur -19.7725 -2.63537 61.5604
ltibia -0.485289
lfoot -50.2632 18.449
ltoes 56.2566
453
root 9.90304 17.1179 -8.13048 478.252 57.6597 -406.159
lowerback -0.947566 -4.69351 -4.11125
upperback -4.58218 -6.7494 -9.36141
thorax -4.97378 -3.32963 -7.33949
lowerneck -3.64115 -11.0011 0.493756
upperneck -26.9962 -16.1279 3.34608
head -7.5411 -7.8393 1.79571
rclavicle -1.51076e-014 -1.1291e-013
rhumerus 52.9082 -45.4485 -30.7016
rradius 47.1944
rwrist 22.148
rhand -37.1222 -48.1847
rfingers 7.12502
rthumb -10.1925 -77.9178
lclavicle -1.51076e-014 -1.1291e-013
lhumerus 79.3354 18.998 37.6401
lradius 33.3964
lwrist -4.85026
lhand -57.1623 -69.6454
lfingers 7.12502
lthumb -29.4464 -41.9593
rfemur 20.2811 17.9807 3.34098
rtibia 2.85222
rfoot -0.165755 -49.5831
rtoes 44.6593
lfemur -18.4093 -8.96561 62.0609
ltibia -2.55196
lfoot -56.1768 18.4426
ltoes 55.797
454
root 9.93976 17.1159 -7.79198 479.901 59.5993 -405.502
lowerback -1.40912 -4.65464 -3.84851
upperback -4.88722 -6.67721 -9.06218
thorax -5.01685 -3.30412 -7.19422
lowerneck -4.07059 -10.9154 -0.383095
upperneck -26.6751 -15.8004 3.98143
head -7.23099 -7.66459 2.04992
rclavicle 1.28812e-013 1.66979e-014
rhumerus 52.5933 -45.5479 -30.8305
rradius 46.8459
rwrist 23.1415
rhand -36.9663 -48.3474
rfingers 7.12502
rthumb -10.0421 -78.0878
lclavicle 1.28812e-013 1.66979e-014
lhumerus 79.7489 18.9424 37.0134
lradius 33.0464
lwrist -5.36095
lhand -57.2958 -70.2713
lfingers 7.12502
lthumb -29.5738 -42.6077
rfemur 19.9171 18.8849 2.80976
rtibia 2.24123
rfoot -5.37768 -50.913
rtoes 45.1671
lfemur -17.2115 -16.017 62.3615
ltibia -4.36726
lfoot -63.7943 16.349
ltoes 55.9614
455
root 9.97596 17.1089 -7.46658 481.236 61.549 -404.992
lowerback -1.75473 -4.62137 -3.53211
upperback -5.1497 -6.61792 -8.73659
thorax -5.08428 -3.28706 -7.04147
lowerneck -4.28484 -10.8404 0.979012
upperneck -27.106 -15.9474 2.86082
head -7.55927 -7.71739 1.52401
rclavicle 7.15625e-014 7.87187e-014
rhumerus 52.3218 -45.5099 -31.1347
rradius 46.5396
rwrist 23.872
rhand -36.9814 -48.4942
rfingers 7.12502
rthumb -10.0567 -78.2339
lclavicle 7.15625e-014 7.87187e-014
lhumerus 79.4558 19.1002 36.2055
lradius 33.2995
lwrist -5.51184
lhand -57.7009 -70.3694
lfingers 7.12502
lthumb -29.9605 -42.775
rfemur 19.5678 19.7115 2.09781
rtibia 1.77667
rfoot -11.0753 -51.8427
rtoes 45.6019
lfemur -15.9117 -23.3185 62.2869
ltibia -5.98746
lfoot -72.2148 11.9534
ltoes 56.5201
456
root 10.0076 17.0962 -7.1589 482.418 63.4504 -404.501
lowerback -2.11828 -4.63266 -3.15823
upperback -5.37514 -6.61307 -8.38195
thorax -5.11035 -3.29943 -6.89047
lowerneck -4.53637 -10.814 0.457733
upperneck -26.8613 -15.8043 3.09178
head -7.36967 -7.61425 1.63017
rclavicle 9.14409e-015 3.73715e-014
rhumerus 51.538 -45.2234 -31.1005
rradius 46.5839
rwrist 23.886
rhand -36.9117 -49.1443
rfingers 7.12502
rthumb -9.98945 -78.8873
lclavicle 9.14409e-015 3.73715e-014
lhumerus 79.2903 19.4189 35.528
lradius 33.345
lwrist -5.68771
lhand -57.9659 -70.4722
lfingers 7.12502
lthumb -30.2133 -42.9238
rfemur 19.279 20.2306 1.12809
rtibia 1.26353
rfoot -14.9945 -51.9797
rtoes 46.9022
lfemur -14.4728 -30.8757 61.7619
ltibia -7.49901
lfoot -80.7581 11.3896
ltoes 55.8076
